<svg width="831" height="816" viewBox="0 0 831 816" fill="none" xmlns="http://www.w3.org/2000/svg">
<rect width="831" height="816" fill="#081427"/>
<ellipse cx="612.159" cy="494.106" rx="31.841" ry="31.8937" fill="#00DAFF"/>
<rect x="317.964" y="485.136" width="195.684" height="20.598" fill="white" stroke="white" stroke-width="3.32226"/>
<ellipse cx="217.841" cy="493.963" rx="31.841" ry="31.8937" fill="#00DAFF"/>
<path d="M470.006 339.007V402.028L415.52 433.539L361.035 402.028V339.007L415.52 307.497L470.006 339.007Z" fill="white" stroke="white" stroke-width="1.3289"/>
<path d="M415.521 322.678L456.883 346.598V394.439L415.521 418.359L374.158 394.439V346.598L415.521 322.678Z" fill="#00DAFF"/>
<rect x="-0.907008" y="0.243032" width="224.491" height="17.2527" transform="matrix(-0.49938 0.866383 -0.865667 -0.50062 382.695 229.476)" fill="white" stroke="white" stroke-width="1.3289"/>
<rect x="0.24338" y="-0.908308" width="224.491" height="17.2527" transform="matrix(-0.49938 -0.866383 0.865667 -0.50062 563.936 422.82)" fill="white" stroke="white" stroke-width="1.3289"/>
<rect x="406.519" y="216.365" width="18.5739" height="79.7342" rx="9.28695" fill="#00DAFF"/>
<ellipse cx="415.806" cy="163.209" rx="37.1478" ry="37.2093" fill="#00DAFF"/>
<rect width="18.597" height="79.6354" rx="9.29848" transform="matrix(-0.49938 -0.866383 0.865667 -0.50062 278.142 470.02)" fill="#00DAFF"/>
<rect width="18.597" height="79.6354" rx="9.29848" transform="matrix(-0.49938 0.866383 -0.865667 -0.50062 561.872 452.79)" fill="#00DAFF"/>
<path d="M124.3 654.9C117.7 654.9 111.967 653.733 107.1 651.4C102.3 649.067 98.3 646.033 95.1 642.3C91.9667 638.5 89.6 634.433 88 630.1C86.4667 625.7 85.7 621.467 85.7 617.4V615.2C85.7 610.733 86.5 606.3 88.1 601.9C89.7 597.433 92.1 593.4 95.3 589.8C98.5667 586.2 102.6 583.333 107.4 581.2C112.2 579 117.833 577.9 124.3 577.9C130.7 577.9 136.3 579 141.1 581.2C145.9 583.333 149.9 586.2 153.1 589.8C156.367 593.4 158.8 597.433 160.4 601.9C162 606.3 162.8 610.733 162.8 615.2V617.4C162.8 621.467 162 625.7 160.4 630.1C158.867 634.433 156.5 638.5 153.3 642.3C150.167 646.033 146.167 649.067 141.3 651.4C136.5 653.733 130.833 654.9 124.3 654.9ZM124.3 641.7C128.033 641.7 131.367 641.033 134.3 639.7C137.3 638.367 139.833 636.533 141.9 634.2C144.033 631.8 145.633 629.1 146.7 626.1C147.833 623.033 148.4 619.8 148.4 616.4C148.4 612.733 147.833 609.367 146.7 606.3C145.633 603.233 144.033 600.567 141.9 598.3C139.833 596.033 137.3 594.267 134.3 593C131.3 591.733 127.967 591.1 124.3 591.1C120.567 591.1 117.2 591.733 114.2 593C111.2 594.267 108.633 596.033 106.5 598.3C104.433 600.567 102.833 603.233 101.7 606.3C100.633 609.367 100.1 612.733 100.1 616.4C100.1 619.8 100.633 623.033 101.7 626.1C102.833 629.1 104.433 631.8 106.5 634.2C108.633 636.533 111.2 638.367 114.2 639.7C117.2 641.033 120.567 641.7 124.3 641.7ZM178.523 653V580H197.923L216.223 623.6H218.023L236.223 580H255.923V653H241.823V590.7L243.623 590.9L223.923 638.1H209.423L189.623 590.9L191.523 590.7V653H178.523ZM275.934 653V580H299.234L329.934 641.2H333.234L331.234 643V580H344.634V653H321.234L290.534 591.8H287.134L289.134 590V653H275.934ZM364.852 653V580H379.052V653H364.852ZM415.67 653L392.37 580H407.07L426.37 643.2L422.17 641.2H432.97L428.67 643.2L446.47 580H460.67L439.07 653H415.67ZM462.234 653L487.134 580H510.334L535.934 653H521.334L499.634 589.7L504.734 591.9H492.234L497.434 589.7L476.434 653H462.234ZM479.634 633.6L484.134 621.6H513.734L518.134 633.6H479.634ZM548.777 653V579.5H562.977V653H548.777ZM593.377 653L570.977 621.2H586.877L609.977 653H593.377ZM558.777 628.6V617.1H577.377C579.977 617.1 582.211 616.567 584.077 615.5C586.011 614.433 587.511 612.933 588.577 611C589.644 609.067 590.177 606.867 590.177 604.4C590.177 601.867 589.644 599.633 588.577 597.7C587.511 595.767 586.011 594.267 584.077 593.2C582.211 592.133 579.977 591.6 577.377 591.6H558.777V579.5H575.877C581.744 579.5 586.811 580.367 591.077 582.1C595.411 583.833 598.744 586.467 601.077 590C603.411 593.533 604.577 597.967 604.577 603.3V604.9C604.577 610.3 603.377 614.733 600.977 618.2C598.644 621.667 595.344 624.267 591.077 626C586.811 627.733 581.744 628.6 575.877 628.6H558.777ZM615.55 653L640.45 580H663.65L689.25 653H674.65L652.95 589.7L658.05 591.9H645.55L650.75 589.7L629.75 653H615.55ZM632.95 633.6L637.45 621.6H667.05L671.45 633.6H632.95ZM84.6328 680H81.5391L87.1719 664H90.75L96.3906 680H93.2969L89.0234 667.281H88.8984L84.6328 680ZM84.7344 673.727H93.1719V676.055H84.7344V673.727ZM102.716 664V680H99.818V664H102.716ZM113.952 680V664H124.202V666.43H116.851V670.773H123.499V673.203H116.851V680H113.952ZM142.46 672C142.46 673.724 142.137 675.201 141.491 676.43C140.85 677.654 139.975 678.591 138.866 679.242C137.762 679.893 136.509 680.219 135.108 680.219C133.707 680.219 132.452 679.893 131.342 679.242C130.238 678.586 129.363 677.646 128.717 676.422C128.077 675.193 127.757 673.719 127.757 672C127.757 670.276 128.077 668.802 128.717 667.578C129.363 666.349 130.238 665.409 131.342 664.758C132.452 664.107 133.707 663.781 135.108 663.781C136.509 663.781 137.762 664.107 138.866 664.758C139.975 665.409 140.85 666.349 141.491 667.578C142.137 668.802 142.46 670.276 142.46 672ZM139.546 672C139.546 670.786 139.356 669.763 138.975 668.93C138.6 668.091 138.079 667.458 137.413 667.031C136.746 666.599 135.978 666.383 135.108 666.383C134.238 666.383 133.47 666.599 132.803 667.031C132.137 667.458 131.613 668.091 131.233 668.93C130.858 669.763 130.671 670.786 130.671 672C130.671 673.214 130.858 674.24 131.233 675.078C131.613 675.911 132.137 676.544 132.803 676.977C133.47 677.404 134.238 677.617 135.108 677.617C135.978 677.617 136.746 677.404 137.413 676.977C138.079 676.544 138.6 675.911 138.975 675.078C139.356 674.24 139.546 673.214 139.546 672ZM146.52 680V664H152.52C153.749 664 154.78 664.214 155.614 664.641C156.452 665.068 157.085 665.667 157.512 666.437C157.944 667.203 158.161 668.096 158.161 669.117C158.161 670.143 157.942 671.034 157.504 671.789C157.072 672.539 156.434 673.12 155.59 673.531C154.746 673.937 153.71 674.141 152.481 674.141H148.207V671.734H152.09C152.809 671.734 153.398 671.635 153.856 671.437C154.314 671.234 154.653 670.94 154.871 670.555C155.095 670.164 155.207 669.685 155.207 669.117C155.207 668.549 155.095 668.065 154.871 667.664C154.648 667.258 154.306 666.951 153.848 666.742C153.39 666.529 152.799 666.422 152.075 666.422H149.418V680H146.52ZM154.786 672.75L158.746 680H155.512L151.621 672.75H154.786ZM177.621 668.398C177.548 667.716 177.241 667.185 176.699 666.805C176.163 666.424 175.465 666.234 174.605 666.234C174.001 666.234 173.483 666.326 173.051 666.508C172.618 666.69 172.288 666.937 172.058 667.25C171.829 667.562 171.712 667.919 171.707 668.32C171.707 668.654 171.782 668.943 171.933 669.187C172.09 669.432 172.301 669.641 172.566 669.812C172.832 669.979 173.126 670.12 173.449 670.234C173.772 670.349 174.097 670.445 174.426 670.523L175.926 670.898C176.53 671.039 177.11 671.229 177.668 671.469C178.23 671.708 178.733 672.01 179.176 672.375C179.623 672.74 179.978 673.18 180.238 673.695C180.498 674.211 180.629 674.815 180.629 675.508C180.629 676.445 180.389 677.271 179.91 677.984C179.431 678.693 178.738 679.247 177.832 679.648C176.931 680.044 175.84 680.242 174.558 680.242C173.314 680.242 172.233 680.049 171.316 679.664C170.405 679.279 169.691 678.716 169.176 677.977C168.665 677.237 168.389 676.336 168.347 675.273H171.199C171.241 675.831 171.413 676.294 171.715 676.664C172.017 677.034 172.41 677.31 172.894 677.492C173.384 677.674 173.931 677.766 174.535 677.766C175.165 677.766 175.717 677.672 176.191 677.484C176.67 677.292 177.045 677.026 177.316 676.687C177.587 676.344 177.725 675.943 177.73 675.484C177.725 675.068 177.603 674.724 177.363 674.453C177.123 674.177 176.788 673.948 176.355 673.766C175.928 673.578 175.428 673.411 174.855 673.266L173.035 672.797C171.717 672.458 170.676 671.945 169.91 671.258C169.15 670.565 168.769 669.646 168.769 668.5C168.769 667.557 169.025 666.732 169.535 666.023C170.051 665.315 170.751 664.766 171.636 664.375C172.522 663.979 173.525 663.781 174.644 663.781C175.78 663.781 176.775 663.979 177.629 664.375C178.488 664.766 179.163 665.31 179.652 666.008C180.142 666.701 180.394 667.497 180.41 668.398H177.621ZM198.228 669.398H195.306C195.223 668.919 195.069 668.495 194.845 668.125C194.621 667.75 194.343 667.432 194.009 667.172C193.676 666.911 193.296 666.716 192.869 666.586C192.447 666.451 191.991 666.383 191.501 666.383C190.632 666.383 189.861 666.602 189.189 667.039C188.517 667.471 187.991 668.107 187.611 668.945C187.231 669.779 187.04 670.797 187.04 672C187.04 673.224 187.231 674.255 187.611 675.094C187.996 675.927 188.522 676.557 189.189 676.984C189.861 677.406 190.629 677.617 191.494 677.617C191.973 677.617 192.421 677.555 192.837 677.43C193.259 677.299 193.637 677.109 193.97 676.859C194.309 676.609 194.593 676.302 194.822 675.937C195.056 675.573 195.218 675.156 195.306 674.687L198.228 674.703C198.119 675.464 197.882 676.177 197.517 676.844C197.158 677.51 196.686 678.099 196.103 678.609C195.52 679.115 194.837 679.51 194.056 679.797C193.275 680.078 192.408 680.219 191.455 680.219C190.048 680.219 188.793 679.893 187.689 679.242C186.585 678.591 185.715 677.651 185.08 676.422C184.444 675.193 184.126 673.719 184.126 672C184.126 670.276 184.447 668.802 185.087 667.578C185.728 666.349 186.6 665.409 187.705 664.758C188.809 664.107 190.059 663.781 191.455 663.781C192.345 663.781 193.173 663.906 193.939 664.156C194.705 664.406 195.387 664.773 195.986 665.258C196.585 665.737 197.077 666.326 197.462 667.023C197.853 667.716 198.108 668.508 198.228 669.398ZM205.101 664V680H202.202V664H205.101ZM209.559 680V664H219.966V666.43H212.458V670.773H219.427V673.203H212.458V677.57H220.028V680H209.559ZM237.391 664V680H234.813L227.274 669.102H227.141V680H224.243V664H226.836L234.368 674.906H234.508V664H237.391ZM255.565 669.398H252.643C252.559 668.919 252.406 668.495 252.182 668.125C251.958 667.75 251.679 667.432 251.346 667.172C251.013 666.911 250.632 666.716 250.205 666.586C249.783 666.451 249.328 666.383 248.838 666.383C247.968 666.383 247.197 666.602 246.526 667.039C245.854 667.471 245.328 668.107 244.947 668.945C244.567 669.779 244.377 670.797 244.377 672C244.377 673.224 244.567 674.255 244.947 675.094C245.333 675.927 245.859 676.557 246.526 676.984C247.197 677.406 247.966 677.617 248.83 677.617C249.309 677.617 249.757 677.555 250.174 677.43C250.596 677.299 250.973 677.109 251.307 676.859C251.645 676.609 251.929 676.302 252.158 675.937C252.393 675.573 252.554 675.156 252.643 674.687L255.565 674.703C255.455 675.464 255.218 676.177 254.854 676.844C254.494 677.51 254.023 678.099 253.44 678.609C252.856 679.115 252.174 679.51 251.393 679.797C250.611 680.078 249.744 680.219 248.791 680.219C247.385 680.219 246.13 679.893 245.026 679.242C243.921 678.591 243.052 677.651 242.416 676.422C241.781 675.193 241.463 673.719 241.463 672C241.463 670.276 241.783 668.802 242.424 667.578C243.065 666.349 243.937 665.409 245.041 664.758C246.145 664.107 247.395 663.781 248.791 663.781C249.682 663.781 250.51 663.906 251.276 664.156C252.041 664.406 252.723 664.773 253.322 665.258C253.921 665.737 254.414 666.326 254.799 667.023C255.19 667.716 255.445 668.508 255.565 669.398ZM259.539 680V664H269.945V666.43H262.437V670.773H269.406V673.203H262.437V677.57H270.008V680H259.539ZM277.417 677.812L277.316 678.672C277.243 679.328 277.113 679.995 276.925 680.672C276.743 681.354 276.55 681.982 276.347 682.555C276.144 683.128 275.98 683.578 275.855 683.906H273.949C274.022 683.589 274.121 683.156 274.246 682.609C274.376 682.063 274.501 681.448 274.621 680.766C274.74 680.083 274.821 679.391 274.863 678.687L274.917 677.812H277.417ZM288.313 680V664H298.72V666.43H291.212V670.773H298.181V673.203H291.212V677.57H298.782V680H288.313ZM316.145 664V680H313.567L306.028 669.102H305.895V680H302.997V664H305.59L313.122 674.906H313.262V664H316.145ZM331.342 669.109C331.212 668.687 331.032 668.31 330.803 667.977C330.579 667.638 330.308 667.349 329.99 667.109C329.678 666.87 329.319 666.69 328.912 666.57C328.506 666.445 328.063 666.383 327.584 666.383C326.725 666.383 325.959 666.599 325.287 667.031C324.615 667.464 324.087 668.099 323.701 668.937C323.321 669.771 323.131 670.786 323.131 671.984C323.131 673.193 323.321 674.216 323.701 675.055C324.082 675.893 324.61 676.531 325.287 676.969C325.964 677.401 326.751 677.617 327.647 677.617C328.459 677.617 329.162 677.461 329.756 677.148C330.355 676.836 330.816 676.393 331.139 675.82C331.462 675.242 331.623 674.565 331.623 673.789L332.28 673.891H327.936V671.625H334.428V673.547C334.428 674.917 334.136 676.102 333.553 677.102C332.97 678.102 332.168 678.872 331.147 679.414C330.126 679.951 328.954 680.219 327.631 680.219C326.157 680.219 324.863 679.888 323.748 679.227C322.639 678.56 321.772 677.615 321.147 676.391C320.527 675.161 320.217 673.703 320.217 672.016C320.217 670.724 320.399 669.57 320.764 668.555C321.134 667.539 321.649 666.677 322.311 665.969C322.972 665.255 323.748 664.714 324.639 664.344C325.53 663.969 326.498 663.781 327.545 663.781C328.431 663.781 329.256 663.911 330.022 664.172C330.787 664.427 331.467 664.792 332.061 665.266C332.66 665.74 333.152 666.302 333.537 666.953C333.923 667.604 334.175 668.323 334.295 669.109H331.342ZM341.449 664V680H338.551V664H341.449ZM359.056 664V680H356.478L348.939 669.102H348.806V680H345.908V664H348.502L356.033 674.906H356.173V664H359.056ZM363.534 680V664H373.941V666.43H366.433V670.773H373.402V673.203H366.433V677.57H374.003V680H363.534ZM378.218 680V664H388.624V666.43H381.116V670.773H388.085V673.203H381.116V677.57H388.686V680H378.218ZM392.901 680V664H398.901C400.13 664 401.161 664.214 401.995 664.641C402.833 665.068 403.466 665.667 403.893 666.437C404.326 667.203 404.542 668.096 404.542 669.117C404.542 670.143 404.323 671.034 403.885 671.789C403.453 672.539 402.815 673.12 401.971 673.531C401.128 673.937 400.091 674.141 398.862 674.141H394.589V671.734H398.471C399.19 671.734 399.779 671.635 400.237 671.437C400.695 671.234 401.034 670.94 401.253 670.555C401.477 670.164 401.589 669.685 401.589 669.117C401.589 668.549 401.477 668.065 401.253 667.664C401.029 667.258 400.687 666.951 400.229 666.742C399.771 666.529 399.18 666.422 398.456 666.422H395.799V680H392.901ZM401.167 672.75L405.128 680H401.893L398.003 672.75H401.167ZM411.428 664V680H408.53V664H411.428ZM429.035 664V680H426.457L418.918 669.102H418.785V680H415.887V664H418.48L426.012 674.906H426.152V664H429.035ZM444.232 669.109C444.102 668.687 443.922 668.31 443.693 667.977C443.469 667.638 443.198 667.349 442.881 667.109C442.568 666.87 442.209 666.69 441.802 666.57C441.396 666.445 440.953 666.383 440.474 666.383C439.615 666.383 438.849 666.599 438.177 667.031C437.506 667.464 436.977 668.099 436.591 668.937C436.211 669.771 436.021 670.786 436.021 671.984C436.021 673.193 436.211 674.216 436.591 675.055C436.972 675.893 437.5 676.531 438.177 676.969C438.855 677.401 439.641 677.617 440.537 677.617C441.349 677.617 442.052 677.461 442.646 677.148C443.245 676.836 443.706 676.393 444.029 675.82C444.352 675.242 444.513 674.565 444.513 673.789L445.17 673.891H440.826V671.625H447.318V673.547C447.318 674.917 447.026 676.102 446.443 677.102C445.86 678.102 445.058 678.872 444.037 679.414C443.016 679.951 441.844 680.219 440.521 680.219C439.047 680.219 437.753 679.888 436.638 679.227C435.529 678.56 434.662 677.615 434.037 676.391C433.417 675.161 433.107 673.703 433.107 672.016C433.107 670.724 433.289 669.57 433.654 668.555C434.024 667.539 434.539 666.677 435.201 665.969C435.862 665.255 436.638 664.714 437.529 664.344C438.42 663.969 439.388 663.781 440.435 663.781C441.321 663.781 442.146 663.911 442.912 664.172C443.677 664.427 444.357 664.792 444.951 665.266C445.55 665.74 446.042 666.302 446.427 666.953C446.813 667.604 447.065 668.323 447.185 669.109H444.232ZM454.636 677.812L454.535 678.672C454.462 679.328 454.331 679.995 454.144 680.672C453.962 681.354 453.769 681.982 453.566 682.555C453.363 683.128 453.199 683.578 453.074 683.906H451.167C451.24 683.589 451.339 683.156 451.464 682.609C451.594 682.063 451.719 681.448 451.839 680.766C451.959 680.083 452.04 679.391 452.081 678.687L452.136 677.812H454.636ZM467.587 680H464.493L470.126 664H473.704L479.344 680H476.251L471.977 667.281H471.852L467.587 680ZM467.688 673.727H476.126V676.055H467.688V673.727ZM495.92 664V680H493.342L485.803 669.102H485.67V680H482.772V664H485.366L492.897 674.906H493.038V664H495.92ZM505.82 680H500.399V664H505.93C507.518 664 508.883 664.32 510.024 664.961C511.169 665.596 512.05 666.51 512.664 667.703C513.279 668.896 513.586 670.323 513.586 671.984C513.586 673.651 513.276 675.083 512.656 676.281C512.042 677.479 511.154 678.398 509.992 679.039C508.836 679.68 507.445 680 505.82 680ZM503.297 677.492H505.68C506.794 677.492 507.724 677.289 508.469 676.883C509.214 676.471 509.774 675.859 510.149 675.047C510.524 674.229 510.711 673.208 510.711 671.984C510.711 670.76 510.524 669.745 510.149 668.937C509.774 668.125 509.219 667.518 508.484 667.117C507.755 666.711 506.849 666.508 505.766 666.508H503.297V677.492ZM529.859 680H524.437V664H529.968C531.557 664 532.921 664.32 534.062 664.961C535.208 665.596 536.088 666.51 536.703 667.703C537.317 668.896 537.624 670.323 537.624 671.984C537.624 673.651 537.315 675.083 536.695 676.281C536.08 677.479 535.192 678.398 534.031 679.039C532.874 679.68 531.484 680 529.859 680ZM527.335 677.492H529.718C530.833 677.492 531.762 677.289 532.507 676.883C533.252 676.471 533.812 675.859 534.187 675.047C534.562 674.229 534.749 673.208 534.749 671.984C534.749 670.76 534.562 669.745 534.187 668.937C533.812 668.125 533.257 667.518 532.523 667.117C531.794 666.711 530.887 666.508 529.804 666.508H527.335V677.492ZM544.597 664V680H541.698V664H544.597ZM557.751 668.398C557.678 667.716 557.371 667.185 556.829 666.805C556.292 666.424 555.595 666.234 554.735 666.234C554.131 666.234 553.613 666.326 553.18 666.508C552.748 666.69 552.417 666.937 552.188 667.25C551.959 667.562 551.842 667.919 551.837 668.32C551.837 668.654 551.912 668.943 552.063 669.187C552.22 669.432 552.43 669.641 552.696 669.812C552.962 669.979 553.256 670.12 553.579 670.234C553.902 670.349 554.227 670.445 554.555 670.523L556.055 670.898C556.66 671.039 557.24 671.229 557.798 671.469C558.36 671.708 558.863 672.01 559.305 672.375C559.753 672.74 560.108 673.18 560.368 673.695C560.628 674.211 560.759 674.815 560.759 675.508C560.759 676.445 560.519 677.271 560.04 677.984C559.561 678.693 558.868 679.247 557.962 679.648C557.061 680.044 555.97 680.242 554.688 680.242C553.444 680.242 552.363 680.049 551.446 679.664C550.535 679.279 549.821 678.716 549.305 677.977C548.795 677.237 548.519 676.336 548.477 675.273H551.329C551.371 675.831 551.542 676.294 551.845 676.664C552.147 677.034 552.54 677.31 553.024 677.492C553.514 677.674 554.061 677.766 554.665 677.766C555.295 677.766 555.847 677.672 556.321 677.484C556.8 677.292 557.175 677.026 557.446 676.687C557.717 676.344 557.855 675.943 557.86 675.484C557.855 675.068 557.733 674.724 557.493 674.453C557.253 674.177 556.917 673.948 556.485 673.766C556.058 673.578 555.558 673.411 554.985 673.266L553.165 672.797C551.847 672.458 550.805 671.945 550.04 671.258C549.279 670.565 548.899 669.646 548.899 668.5C548.899 667.557 549.154 666.732 549.665 666.023C550.18 665.315 550.881 664.766 551.766 664.375C552.652 663.979 553.654 663.781 554.774 663.781C555.91 663.781 556.904 663.979 557.759 664.375C558.618 664.766 559.292 665.31 559.782 666.008C560.272 666.701 560.524 667.497 560.54 668.398H557.751ZM578.358 669.398H575.436C575.353 668.919 575.199 668.495 574.975 668.125C574.751 667.75 574.472 667.432 574.139 667.172C573.806 666.911 573.426 666.716 572.999 666.586C572.577 666.451 572.121 666.383 571.631 666.383C570.762 666.383 569.991 666.602 569.319 667.039C568.647 667.471 568.121 668.107 567.741 668.945C567.36 669.779 567.17 670.797 567.17 672C567.17 673.224 567.36 674.255 567.741 675.094C568.126 675.927 568.652 676.557 569.319 676.984C569.991 677.406 570.759 677.617 571.624 677.617C572.103 677.617 572.551 677.555 572.967 677.43C573.389 677.299 573.767 677.109 574.1 676.859C574.439 676.609 574.722 676.302 574.952 675.937C575.186 675.573 575.347 675.156 575.436 674.687L578.358 674.703C578.249 675.464 578.012 676.177 577.647 676.844C577.288 677.51 576.816 678.099 576.233 678.609C575.65 679.115 574.967 679.51 574.186 679.797C573.405 680.078 572.538 680.219 571.584 680.219C570.178 680.219 568.923 679.893 567.819 679.242C566.715 678.591 565.845 677.651 565.209 676.422C564.574 675.193 564.256 673.719 564.256 672C564.256 670.276 564.577 668.802 565.217 667.578C565.858 666.349 566.73 665.409 567.834 664.758C568.939 664.107 570.189 663.781 571.584 663.781C572.475 663.781 573.303 663.906 574.069 664.156C574.834 664.406 575.517 664.773 576.116 665.258C576.715 665.737 577.207 666.326 577.592 667.023C577.983 667.716 578.238 668.508 578.358 669.398ZM596.629 672C596.629 673.724 596.306 675.201 595.66 676.43C595.02 677.654 594.145 678.591 593.035 679.242C591.931 679.893 590.679 680.219 589.277 680.219C587.876 680.219 586.621 679.893 585.512 679.242C584.408 678.586 583.533 677.646 582.887 676.422C582.246 675.193 581.926 673.719 581.926 672C581.926 670.276 582.246 668.802 582.887 667.578C583.533 666.349 584.408 665.409 585.512 664.758C586.621 664.107 587.876 663.781 589.277 663.781C590.679 663.781 591.931 664.107 593.035 664.758C594.145 665.409 595.02 666.349 595.66 667.578C596.306 668.802 596.629 670.276 596.629 672ZM593.715 672C593.715 670.786 593.525 669.763 593.145 668.93C592.77 668.091 592.249 667.458 591.582 667.031C590.916 666.599 590.147 666.383 589.277 666.383C588.408 666.383 587.639 666.599 586.973 667.031C586.306 667.458 585.783 668.091 585.402 668.93C585.027 669.763 584.84 670.786 584.84 672C584.84 673.214 585.027 674.24 585.402 675.078C585.783 675.911 586.306 676.544 586.973 676.977C587.639 677.404 588.408 677.617 589.277 677.617C590.147 677.617 590.916 677.404 591.582 676.977C592.249 676.544 592.77 675.911 593.145 675.078C593.525 674.24 593.715 673.214 593.715 672ZM601.971 664L606.135 676.594H606.299L610.455 664H613.642L608.002 680H604.424L598.791 664H601.971ZM617.07 680V664H627.476V666.43H619.968V670.773H626.937V673.203H619.968V677.57H627.539V680H617.07ZM631.753 680V664H637.753C638.982 664 640.014 664.214 640.847 664.641C641.685 665.068 642.318 665.667 642.745 666.437C643.178 667.203 643.394 668.096 643.394 669.117C643.394 670.143 643.175 671.034 642.737 671.789C642.305 672.539 641.667 673.12 640.823 673.531C639.98 673.937 638.943 674.141 637.714 674.141H633.441V671.734H637.323C638.042 671.734 638.631 671.635 639.089 671.437C639.547 671.234 639.886 670.94 640.105 670.555C640.329 670.164 640.441 669.685 640.441 669.117C640.441 668.549 640.329 668.065 640.105 667.664C639.881 667.258 639.54 666.951 639.081 666.742C638.623 666.529 638.032 666.422 637.308 666.422H634.652V680H631.753ZM640.019 672.75L643.98 680H640.745L636.855 672.75H640.019ZM645.665 664H648.938L652.852 671.078H653.009L656.923 664H660.196L654.376 674.031V680H651.485V674.031L645.665 664Z" fill="white"/>
</svg>
