<svg width="831" height="816" viewBox="0 0 831 816" fill="none" xmlns="http://www.w3.org/2000/svg">
<rect width="831" height="816" fill="#081427"/>
<ellipse cx="612.159" cy="576.106" rx="31.841" ry="31.8937" fill="#00DAFF"/>
<rect x="317.964" y="567.136" width="195.684" height="20.598" fill="white" stroke="white" stroke-width="3.32226"/>
<ellipse cx="217.841" cy="575.963" rx="31.841" ry="31.8937" fill="#00DAFF"/>
<path d="M470.006 421.007V484.028L415.52 515.539L361.035 484.028V421.007L415.52 389.497L470.006 421.007Z" fill="white" stroke="white" stroke-width="1.3289"/>
<path d="M415.521 404.678L456.883 428.598V476.439L415.521 500.359L374.158 476.439V428.598L415.521 404.678Z" fill="#00DAFF"/>
<rect x="-0.907008" y="0.243032" width="224.491" height="17.2527" transform="matrix(-0.49938 0.866383 -0.865667 -0.50062 382.695 311.476)" fill="white" stroke="white" stroke-width="1.3289"/>
<rect x="0.24338" y="-0.908308" width="224.491" height="17.2527" transform="matrix(-0.49938 -0.866383 0.865667 -0.50062 563.936 504.82)" fill="white" stroke="white" stroke-width="1.3289"/>
<rect x="406.519" y="298.365" width="18.5739" height="79.7342" rx="9.28695" fill="#00DAFF"/>
<ellipse cx="415.806" cy="245.209" rx="37.1478" ry="37.2093" fill="#00DAFF"/>
<rect width="18.597" height="79.6354" rx="9.29848" transform="matrix(-0.49938 -0.866383 0.865667 -0.50062 278.142 552.02)" fill="#00DAFF"/>
<rect width="18.597" height="79.6354" rx="9.29848" transform="matrix(-0.49938 0.866383 -0.865667 -0.50062 561.872 534.79)" fill="#00DAFF"/>
</svg>
